# xmcd CD database file
#
# Track frame offsets:
#	150
#	19627
#	38102
#	54617
#	71286
#	84817
#	100863
#	125231
#	146076
#	159043
#	173427
#	179223
#	197254
#	211009
#	228534
#	249060
#
# Disc length: 3494 seconds
#
# Revision: 0
# Processed by: cddbd v1.5PL3 Copyright (c) Steve Scherf et al.
# Submitted via: Feurio! 1.67 - http://www.feurio.com
#
DISCID=c50da410
DTITLE=Bonnie Raitt - 1972-02-22
DYEAR=1900
DGENRE=
TTITLE0=Mighty Tight Woman
TTITLE1=Rollin' and Tumblin'
TTITLE2=Any Day Woman
TTITLE3=Don't Advertise Your Man
TTITLE4=Thank You
TTITLE5=Bluebird
TTITLE6=Finest Lovin' Man
TTITLE7=Big Road
TTITLE8=Stayed Too Long at the Fair
TTITLE9=Under the Fallen Sky
TTITLE10=Chatter
TTITLE11=Walkin' Blues
TTITLE12=Can't Find My Way Home
TTITLE13=Blow Your Horn
TTITLE14=Blender Blues
TTITLE15=Since I Fell For You
EXTD=Sigma Sound Studios\r\nPhiladelphia, PA
EXTT0=
EXTT1=
EXTT2=
EXTT3=
EXTT4=
EXTT5=
EXTT6=
EXTT7=
EXTT8=
EXTT9=
EXTT10=
EXTT11=
EXTT12=
EXTT13=
EXTT14=
EXTT15=
PLAYORDER=
